#!OML:ASF E:\Style4\Style4.ASF
:FULLY-SPECIFIED
:DEGREES
2906
root -0.146342 17.7351 -1.43155 6.7191 -1.76846 2.17032
lowerback 10.1353 2.40144 -0.681236
upperback 7.4891 3.11334 0.535809
thorax 2.0519 1.51836 0.681796
lowerneck -4.82104 -5.07317 -6.44316
upperneck 7.676 -6.51455 3.01648
head 3.72657 -3.29277 1.82067
rclavicle -2.18663e-014 6.36111e-015
rhumerus 41.5667 34.083 5.18209
rradius 117.118
rwrist -99.6857
rhand -30.0001 21.9792
rfingers 7.12502
rthumb -3.31757 -7.9747
lclavicle -2.18663e-014 6.36111e-015
lhumerus 52.6105 -31.7126 -4.0663
lradius 118.034
lwrist 88.7263
lhand -11.9016 32.5862
lfingers 7.12502
lthumb 14.1518 62.0842
rfemur -25.1941 0.435196 16.9469
rtibia 36.2518
rfoot -17.6653 -13.0156
rtoes -11.9298
lfemur -24.0185 1.47369 -20.0366
ltibia 33.8481
lfoot -16.9894 10.2675
ltoes -14.1828
2907
root -0.146656 17.7531 -1.4101 6.7286 -1.77579 2.02862
lowerback 9.77145 2.40087 -0.435297
upperback 7.49691 3.13389 0.487191
thorax 2.27322 1.53842 0.509352
lowerneck -4.80626 -5.07545 -6.33535
upperneck 7.54555 -6.52627 3.01934
head 3.67324 -3.29455 1.80267
rclavicle 5.20816e-014 6.36111e-015
rhumerus 41.428 33.2506 5.11661
rradius 117.361
rwrist -99.5183
rhand -30.3369 22.3411
rfingers 7.12502
rthumb -3.64284 -7.60755
lclavicle 5.20816e-014 6.36111e-015
lhumerus 52.5153 -30.7903 -4.19412
lradius 118.277
lwrist 88.7855
lhand -11.8934 32.6619
lfingers 7.12502
lthumb 14.1597 62.1593
rfemur -24.8252 0.611914 17.088
rtibia 35.7321
rfoot -17.54 -13.1031
rtoes -11.9125
lfemur -23.6704 1.43544 -19.8735
ltibia 33.3601
lfoot -16.8834 10.3114
ltoes -13.9776
2908
root -0.146969 17.7718 -1.38627 6.72743 -1.82353 2.02217
lowerback 10.845 2.38082 -0.968996
upperback 6.52915 3.05612 0.746737
thorax 0.635587 1.48593 1.00727
lowerneck -4.57172 -4.93476 -6.45537
upperneck 8.27346 -6.31895 2.6572
head 3.86182 -3.21739 1.71441
rclavicle 2.78299e-015 -3.97569e-015
rhumerus 41.9545 33.6514 5.71145
rradius 117.732
rwrist -99.4281
rhand -30.5844 22.4608
rfingers 7.12502
rthumb -3.88184 -7.48358
lclavicle 2.78299e-015 -3.97569e-015
lhumerus 51.7534 -31.3072 -3.78971
lradius 118.634
lwrist 88.9293
lhand -12.0464 32.7139
lfingers 7.12502
lthumb 14.0123 62.2217
rfemur -24.4688 0.787808 17.0717
rtibia 35.2251
rfoot -17.408 -13.1842
rtoes -12.0744
lfemur -23.303 1.44024 -19.8675
ltibia 32.8734
lfoot -16.7467 10.3474
ltoes -14.0149
2909
root -0.148665 17.7909 -1.36241 6.7476 -1.84239 2.05638
lowerback 10.3924 2.40677 -0.954097
upperback 6.5956 3.09671 0.691374
thorax 0.953072 1.50598 0.959007
lowerneck -4.61259 -4.97722 -6.4249
upperneck 8.13653 -6.38301 2.7502
head 3.82766 -3.24302 1.73668
rclavicle 3.97569e-016 -5.56597e-015
rhumerus 41.7456 32.644 5.55912
rradius 117.898
rwrist -99.5314
rhand -30.6394 22.5504
rfingers 7.12502
rthumb -3.93495 -7.39299
lclavicle 3.97569e-016 -5.56597e-015
lhumerus 51.6343 -30.294 -3.83455
lradius 118.88
lwrist 89.1587
lhand -12.3412 32.5992
lfingers 7.12502
lthumb 13.7282 62.1263
rfemur -24.1382 0.917847 17.0194
rtibia 34.7389
rfoot -17.3097 -13.2623
rtoes -11.9408
lfemur -22.9685 1.38653 -19.9012
ltibia 32.3942
lfoot -16.6532 10.4703
ltoes -14.1004
2910
root -0.151972 17.8089 -1.34239 6.77718 -1.78943 2.04054
lowerback 10.1564 2.40753 -0.942169
upperback 6.53805 3.10177 0.692007
thorax 1.02148 1.50893 0.961103
lowerneck -4.63357 -4.98086 -6.36875
upperneck 8.08579 -6.38915 2.73086
head 3.81048 -3.24458 1.71958
rclavicle -3.18055e-014 3.18055e-015
rhumerus 41.579 31.6673 5.42778
rradius 117.974
rwrist -99.7143
rhand -30.5185 22.4949
rfingers 7.12502
rthumb -3.81819 -7.4506
lclavicle -3.18055e-014 3.18055e-015
lhumerus 51.4723 -29.415 -3.79448
lradius 118.999
lwrist 89.2648
lhand -12.4839 32.5245
lfingers 7.12502
lthumb 13.5907 62.0608
rfemur -23.8277 1.00095 17.0439
rtibia 34.2808
rfoot -17.1667 -13.3813
rtoes -11.8758
lfemur -22.6732 1.30652 -19.8698
ltibia 31.9049
lfoot -16.4461 10.6167
ltoes -14.5473
2911
root -0.152538 17.8271 -1.3251 6.80208 -1.77799 2.01306
lowerback 10.1357 2.39775 -0.837872
upperback 6.36524 3.09754 0.616061
thorax 0.861707 1.51268 0.821016
lowerneck -4.65125 -4.95229 -6.22559
upperneck 8.10654 -6.36065 2.71659
head 3.81216 -3.22675 1.69028
rclavicle 4.96962e-015 -1.03368e-014
rhumerus 41.4352 30.8195 5.17735
rradius 117.924
rwrist -99.7193
rhand -30.3016 22.5365
rfingers 7.12502
rthumb -3.60876 -7.41271
lclavicle 4.96962e-015 -1.03368e-014
lhumerus 51.3607 -28.5553 -3.87668
lradius 119.018
lwrist 89.4206
lhand -12.4917 32.4426
lfingers 7.12502
lthumb 13.5831 61.9795
rfemur -23.547 1.06703 17.0667
rtibia 33.8354
rfoot -17.014 -13.4514
rtoes -11.8224
lfemur -22.369 1.2368 -19.8293
ltibia 31.42
lfoot -16.2506 10.7141
ltoes -14.6632
2912
root -0.151656 17.8425 -1.30879 6.84688 -1.77344 2.00364
lowerback 9.14968 2.46236 -0.694698
upperback 6.83256 3.20321 0.585075
thorax 1.89465 1.56472 0.757807
lowerneck -4.80518 -5.06705 -6.15448
upperneck 7.51705 -6.51143 2.79192
head 3.64237 -3.29081 1.69471
rclavicle -3.29983e-014 5.56597e-015
rhumerus 41.0957 29.1185 4.96968
rradius 117.81
rwrist -99.7707
rhand -30.2918 22.6226
rfingers 7.12502
rthumb -3.59921 -7.32672
lclavicle -3.29983e-014 5.56597e-015
lhumerus 51.478 -26.7154 -3.70597
lradius 118.796
lwrist 89.6473
lhand -12.4663 32.4881
lfingers 7.12502
lthumb 13.6076 62.0234
rfemur -23.2989 1.08565 17.0711
rtibia 33.4051
rfoot -16.86 -13.501
rtoes -11.8898
lfemur -22.1011 1.21898 -19.8204
ltibia 30.9478
lfoot -16.0264 10.7142
ltoes -14.4008
2913
root -0.152061 17.8579 -1.29266 6.87647 -1.73797 1.99129
lowerback 9.2009 2.44338 -0.697369
upperback 6.6258 3.17782 0.574883
thorax 1.65116 1.55391 0.742292
lowerneck -4.69734 -5.06158 -6.03112
upperneck 7.37127 -6.51111 2.69449
head 3.55969 -3.29064 1.64334
rclavicle -2.32578e-014 9.54166e-015
rhumerus 41.0954 28.3293 4.84609
rradius 117.799
rwrist -99.943
rhand -30.5085 22.7268
rfingers 7.12502
rthumb -3.80851 -7.2189
lclavicle -2.32578e-014 9.54166e-015
lhumerus 51.2803 -25.8057 -3.52722
lradius 118.597
lwrist 89.8009
lhand -12.3485 32.6329
lfingers 7.12502
lthumb 13.7212 62.1605
rfemur -23.0289 1.12639 17.0776
rtibia 32.9934
rfoot -16.7728 -13.5149
rtoes -11.764
lfemur -21.8244 1.21973 -19.8052
ltibia 30.4724
lfoot -15.8051 10.6834
ltoes -14.3445
2914
root -0.152772 17.874 -1.27522 6.94022 -1.71112 2.0051
lowerback 9.08349 2.43779 -0.73675
upperback 6.46395 3.16918 0.570249
thorax 1.54447 1.54949 0.760676
lowerneck -4.52408 -5.05836 -6.01751
upperneck 7.22029 -6.5198 2.73081
head 3.47501 -3.29351 1.65741
rclavicle 2.16675e-014 -8.74653e-015
rhumerus 41.1361 27.4942 4.75046
rradius 117.678
rwrist -100.063
rhand -30.7724 22.9308
rfingers 7.12502
rthumb -4.06338 -7.01015
lclavicle 2.16675e-014 -8.74653e-015
lhumerus 51.1462 -24.9274 -3.40607
lradius 118.394
lwrist 89.7013
lhand -12.1028 32.5795
lfingers 7.12502
lthumb 13.958 62.0909
rfemur -22.8119 1.16064 17.0576
rtibia 32.6035
rfoot -16.6577 -13.555
rtoes -11.677
lfemur -21.5709 1.15563 -19.8198
ltibia 30.01
lfoot -15.6717 10.7548
ltoes -14.3977
2915
root -0.15454 17.8901 -1.26134 6.98448 -1.74578 2.03576
lowerback 8.96217 2.44909 -0.814113
upperback 6.34265 3.18023 0.562543
thorax 1.4803 1.55351 0.796918
lowerneck -4.41991 -5.04668 -6.07822
upperneck 7.10449 -6.51224 2.82389
head 3.4216 -3.28817 1.70278
rclavicle 6.95746e-015 -3.18055e-015
rhumerus 41.2136 26.561 4.64704
rradius 117.463
rwrist -100.253
rhand -30.9663 23.0683
rfingers 7.12502
rthumb -4.25062 -6.86899
lclavicle 6.95746e-015 -3.18055e-015
lhumerus 51.0457 -24.006 -3.24347
lradius 118.125
lwrist 89.6788
lhand -11.8623 32.5433
lfingers 7.12502
lthumb 14.1897 62.0386
rfemur -22.6086 1.27983 17.0212
rtibia 32.2309
rfoot -16.5238 -13.6634
rtoes -11.7113
lfemur -21.3022 1.04897 -19.8471
ltibia 29.5688
lfoot -15.5926 10.9097
ltoes -14.2987
2916
root -0.156226 17.9032 -1.2485 7.03437 -1.78081 2.06257
lowerback 8.88058 2.43262 -0.86809
upperback 6.24754 3.15577 0.53592
thorax 1.42483 1.54076 0.802386
lowerneck -4.47902 -5.0093 -6.04381
upperneck 7.00187 -6.45962 2.81219
head 3.39238 -3.26058 1.69488
rclavicle 4.37326e-015 -3.97569e-015
rhumerus 41.3435 25.527 4.48595
rradius 117.183
rwrist -100.564
rhand -30.9934 22.9683
rfingers 7.12502
rthumb -4.27677 -6.96848
lclavicle 4.37326e-015 -3.97569e-015
lhumerus 50.8413 -22.9829 -3.01509
lradius 117.775
lwrist 89.6839
lhand -11.5676 32.5064
lfingers 7.12502
lthumb 14.4737 61.9816
rfemur -22.4198 1.37924 16.9845
rtibia 31.8624
rfoot -16.381 -13.7305
rtoes -11.8666
lfemur -21.0762 0.970104 -19.874
ltibia 29.1646
lfoot -15.4598 11.0727
ltoes -14.5039
2917
root -0.15744 17.9148 -1.23756 7.1147 -1.7921 2.03422
lowerback 9.31452 2.35923 -0.849673
upperback 5.82139 3.05498 0.486917
thorax 0.749269 1.49623 0.718791
lowerneck -4.49744 -4.91239 -5.97145
upperneck 7.16983 -6.33091 2.74215
head 3.44112 -3.19858 1.66395
rclavicle -1.35174e-014 -6.36111e-015
rhumerus 41.6051 24.8994 4.255
rradius 116.877
rwrist -100.811
rhand -30.9434 22.8819
rfingers 7.12502
rthumb -4.22851 -7.05583
lclavicle -1.35174e-014 -6.36111e-015
lhumerus 50.4709 -22.3781 -2.83328
lradius 117.46
lwrist 89.7178
lhand -11.4456 32.4786
lfingers 7.12502
lthumb 14.5912 61.9453
rfemur -22.2659 1.46933 17.0062
rtibia 31.4892
rfoot -16.2196 -13.824
rtoes -11.6257
lfemur -20.9181 0.914163 -19.8362
ltibia 28.7988
lfoot -15.3624 11.1356
ltoes -14.3102
2918
root -0.157364 17.9282 -1.2259 7.17296 -1.82011 1.94368
lowerback 9.34044 2.33474 -0.807357
upperback 5.65343 3.02555 0.508711
thorax 0.561859 1.48354 0.714441
lowerneck -4.46011 -4.86816 -5.95613
upperneck 7.10255 -6.27361 2.72924
head 3.40634 -3.17016 1.6611
rclavicle -3.69739e-014 7.95139e-015
rhumerus 41.7823 23.9985 4.09751
rradius 116.395
rwrist -100.72
rhand -30.7055 22.9719
rfingers 7.12502
rthumb -3.99871 -6.97034
lclavicle -3.69739e-014 7.95139e-015
lhumerus 50.2423 -21.5042 -2.59953
lradius 117.133
lwrist 89.8014
lhand -11.7054 32.4155
lfingers 7.12502
lthumb 14.3409 61.9002
rfemur -22.0769 1.5156 17.1047
rtibia 31.0961
rfoot -16.0276 -13.8541
rtoes -11.8069
lfemur -20.7499 0.862812 -19.727
ltibia 28.4822
lfoot -15.3304 11.1923
ltoes -14.0948
2919
root -0.157735 17.9418 -1.21558 7.21702 -1.85705 1.91444
lowerback 9.27987 2.33453 -0.807963
upperback 5.55671 3.02592 0.515595
thorax 0.493968 1.48421 0.721769
lowerneck -4.28246 -4.8231 -6.02142
upperneck 6.80011 -6.22407 2.83202
head 3.27271 -3.14304 1.71501
rclavicle -8.34896e-015 9.54166e-015
rhumerus 41.9543 23.0852 3.9006
rradius 115.757
rwrist -100.314
rhand -30.4537 22.9982
rfingers 7.12502
rthumb -3.75563 -6.94843
lclavicle -8.34896e-015 9.54166e-015
lhumerus 50.1212 -20.5759 -2.35228
lradius 116.692
lwrist 89.7997
lhand -11.8328 32.3281
lfingers 7.12502
lthumb 14.2181 61.8215
rfemur -21.8879 1.50886 17.1401
rtibia 30.7075
rfoot -15.8366 -13.8046
rtoes -11.8646
lfemur -20.5899 0.801423 -19.6889
ltibia 28.2041
lfoot -15.2679 11.3037
ltoes -14.2275
2920
root -0.15813 17.9548 -1.20756 7.28425 -1.86636 1.81148
lowerback 9.26943 2.32297 -0.665184
upperback 5.47541 3.02152 0.508746
thorax 0.422766 1.48584 0.633662
lowerneck -4.14108 -4.75899 -6.12342
upperneck 6.39769 -6.15277 3.06636
head 3.11881 -3.10084 1.81993
rclavicle 4.73108e-014 -5.56597e-015
rhumerus 42.0661 22.1129 3.5693
rradius 115.156
rwrist -100.242
rhand -30.2687 22.8282
rfingers 7.12502
rthumb -3.57697 -7.1215
lclavicle 4.73108e-014 -5.56597e-015
lhumerus 50.0558 -19.5654 -2.09343
lradius 116.163
lwrist 89.7725
lhand -11.7385 32.3862
lfingers 7.12502
lthumb 14.309 61.8731
rfemur -21.7318 1.51844 17.2613
rtibia 30.3488
rfoot -15.6559 -13.8392
rtoes -11.9507
lfemur -20.4616 0.708566 -19.5603
ltibia 27.9374
lfoot -15.2536 11.345
ltoes -13.7839
